G04 (created by PCBNEW (2013-07-07 BZR 4022)-stable) date 26/01/2014 9:48:07 PM*
%MOIN*%
G04 Gerber Fmt 3.4, Leading zero omitted, Abs format*
%FSLAX34Y34*%
G01*
G70*
G90*
G04 APERTURE LIST*
%ADD10C,0.00590551*%
%ADD11C,0.00984252*%
G04 APERTURE END LIST*
G54D10*
G54D11*
X40532Y-7247D02*
X40551Y-7266D01*
X40607Y-7285D01*
X40644Y-7285D01*
X40701Y-7266D01*
X40738Y-7229D01*
X40757Y-7191D01*
X40776Y-7116D01*
X40776Y-7060D01*
X40757Y-6985D01*
X40738Y-6947D01*
X40701Y-6910D01*
X40644Y-6891D01*
X40607Y-6891D01*
X40551Y-6910D01*
X40532Y-6929D01*
X40307Y-7285D02*
X40344Y-7266D01*
X40363Y-7247D01*
X40382Y-7210D01*
X40382Y-7097D01*
X40363Y-7060D01*
X40344Y-7041D01*
X40307Y-7022D01*
X40251Y-7022D01*
X40213Y-7041D01*
X40194Y-7060D01*
X40176Y-7097D01*
X40176Y-7210D01*
X40194Y-7247D01*
X40213Y-7266D01*
X40251Y-7285D01*
X40307Y-7285D01*
X40007Y-7022D02*
X40007Y-7285D01*
X40007Y-7060D02*
X39988Y-7041D01*
X39951Y-7022D01*
X39895Y-7022D01*
X39857Y-7041D01*
X39838Y-7079D01*
X39838Y-7285D01*
X39707Y-7022D02*
X39557Y-7022D01*
X39651Y-6891D02*
X39651Y-7229D01*
X39632Y-7266D01*
X39595Y-7285D01*
X39557Y-7285D01*
X39426Y-7285D02*
X39426Y-7022D01*
X39426Y-7097D02*
X39407Y-7060D01*
X39388Y-7041D01*
X39351Y-7022D01*
X39313Y-7022D01*
X39126Y-7285D02*
X39163Y-7266D01*
X39182Y-7247D01*
X39201Y-7210D01*
X39201Y-7097D01*
X39182Y-7060D01*
X39163Y-7041D01*
X39126Y-7022D01*
X39070Y-7022D01*
X39032Y-7041D01*
X39013Y-7060D01*
X38995Y-7097D01*
X38995Y-7210D01*
X39013Y-7247D01*
X39032Y-7266D01*
X39070Y-7285D01*
X39126Y-7285D01*
X38770Y-7285D02*
X38807Y-7266D01*
X38826Y-7229D01*
X38826Y-6891D01*
X38563Y-7285D02*
X38601Y-7266D01*
X38620Y-7229D01*
X38620Y-6891D01*
X38263Y-7266D02*
X38301Y-7285D01*
X38376Y-7285D01*
X38413Y-7266D01*
X38432Y-7229D01*
X38432Y-7079D01*
X38413Y-7041D01*
X38376Y-7022D01*
X38301Y-7022D01*
X38263Y-7041D01*
X38245Y-7079D01*
X38245Y-7116D01*
X38432Y-7154D01*
X38076Y-7285D02*
X38076Y-7022D01*
X38076Y-7097D02*
X38057Y-7060D01*
X38038Y-7041D01*
X38001Y-7022D01*
X37964Y-7022D01*
X37589Y-7022D02*
X37439Y-7022D01*
X37532Y-7285D02*
X37532Y-6947D01*
X37514Y-6910D01*
X37476Y-6891D01*
X37439Y-6891D01*
X37251Y-7285D02*
X37289Y-7266D01*
X37307Y-7247D01*
X37326Y-7210D01*
X37326Y-7097D01*
X37307Y-7060D01*
X37289Y-7041D01*
X37251Y-7022D01*
X37195Y-7022D01*
X37157Y-7041D01*
X37139Y-7060D01*
X37120Y-7097D01*
X37120Y-7210D01*
X37139Y-7247D01*
X37157Y-7266D01*
X37195Y-7285D01*
X37251Y-7285D01*
X36951Y-7285D02*
X36951Y-7022D01*
X36951Y-7097D02*
X36932Y-7060D01*
X36914Y-7041D01*
X36876Y-7022D01*
X36839Y-7022D01*
X36182Y-7285D02*
X36314Y-7097D01*
X36407Y-7285D02*
X36407Y-6891D01*
X36257Y-6891D01*
X36220Y-6910D01*
X36201Y-6929D01*
X36182Y-6966D01*
X36182Y-7022D01*
X36201Y-7060D01*
X36220Y-7079D01*
X36257Y-7097D01*
X36407Y-7097D01*
X36032Y-7266D02*
X35976Y-7285D01*
X35883Y-7285D01*
X35845Y-7266D01*
X35826Y-7247D01*
X35808Y-7210D01*
X35808Y-7172D01*
X35826Y-7135D01*
X35845Y-7116D01*
X35883Y-7097D01*
X35958Y-7079D01*
X35995Y-7060D01*
X36014Y-7041D01*
X36032Y-7004D01*
X36032Y-6966D01*
X36014Y-6929D01*
X35995Y-6910D01*
X35958Y-6891D01*
X35864Y-6891D01*
X35808Y-6910D01*
X35658Y-7172D02*
X35470Y-7172D01*
X35695Y-7285D02*
X35564Y-6891D01*
X35433Y-7285D01*
X35226Y-6891D02*
X35189Y-6891D01*
X35151Y-6910D01*
X35133Y-6929D01*
X35114Y-6966D01*
X35095Y-7041D01*
X35095Y-7135D01*
X35114Y-7210D01*
X35133Y-7247D01*
X35151Y-7266D01*
X35189Y-7285D01*
X35226Y-7285D01*
X35264Y-7266D01*
X35283Y-7247D01*
X35301Y-7210D01*
X35320Y-7135D01*
X35320Y-7041D01*
X35301Y-6966D01*
X35283Y-6929D01*
X35264Y-6910D01*
X35226Y-6891D01*
X34926Y-7285D02*
X34926Y-6891D01*
X34701Y-7285D01*
X34701Y-6891D01*
X34308Y-7285D02*
X34533Y-7285D01*
X34420Y-7285D02*
X34420Y-6891D01*
X34458Y-6947D01*
X34495Y-6985D01*
X34533Y-7004D01*
X33933Y-7285D02*
X34158Y-7285D01*
X34045Y-7285D02*
X34045Y-6891D01*
X34083Y-6947D01*
X34120Y-6985D01*
X34158Y-7004D01*
X33764Y-7285D02*
X33764Y-6891D01*
X33633Y-7172D01*
X33502Y-6891D01*
X33502Y-7285D01*
X33295Y-7285D02*
X33220Y-7285D01*
X33183Y-7266D01*
X33164Y-7247D01*
X33127Y-7191D01*
X33108Y-7116D01*
X33108Y-6966D01*
X33127Y-6929D01*
X33145Y-6910D01*
X33183Y-6891D01*
X33258Y-6891D01*
X33295Y-6910D01*
X33314Y-6929D01*
X33333Y-6966D01*
X33333Y-7060D01*
X33314Y-7097D01*
X33295Y-7116D01*
X33258Y-7135D01*
X33183Y-7135D01*
X33145Y-7116D01*
X33127Y-7097D01*
X33108Y-7060D01*
X32958Y-7172D02*
X32770Y-7172D01*
X32995Y-7285D02*
X32864Y-6891D01*
X32733Y-7285D01*
X32527Y-6891D02*
X32489Y-6891D01*
X32452Y-6910D01*
X32433Y-6929D01*
X32414Y-6966D01*
X32395Y-7041D01*
X32395Y-7135D01*
X32414Y-7210D01*
X32433Y-7247D01*
X32452Y-7266D01*
X32489Y-7285D01*
X32527Y-7285D01*
X32564Y-7266D01*
X32583Y-7247D01*
X32602Y-7210D01*
X32620Y-7135D01*
X32620Y-7041D01*
X32602Y-6966D01*
X32583Y-6929D01*
X32564Y-6910D01*
X32527Y-6891D01*
X32114Y-6891D02*
X32114Y-7172D01*
X32133Y-7229D01*
X32170Y-7266D01*
X32227Y-7285D01*
X32264Y-7285D01*
X31627Y-7285D02*
X31627Y-7022D01*
X31627Y-7060D02*
X31608Y-7041D01*
X31571Y-7022D01*
X31514Y-7022D01*
X31477Y-7041D01*
X31458Y-7079D01*
X31458Y-7285D01*
X31458Y-7079D02*
X31439Y-7041D01*
X31402Y-7022D01*
X31346Y-7022D01*
X31308Y-7041D01*
X31289Y-7079D01*
X31289Y-7285D01*
X31046Y-7285D02*
X31083Y-7266D01*
X31102Y-7247D01*
X31121Y-7210D01*
X31121Y-7097D01*
X31102Y-7060D01*
X31083Y-7041D01*
X31046Y-7022D01*
X30989Y-7022D01*
X30952Y-7041D01*
X30933Y-7060D01*
X30914Y-7097D01*
X30914Y-7210D01*
X30933Y-7247D01*
X30952Y-7266D01*
X30989Y-7285D01*
X31046Y-7285D01*
X30802Y-7022D02*
X30652Y-7022D01*
X30746Y-6891D02*
X30746Y-7229D01*
X30727Y-7266D01*
X30689Y-7285D01*
X30652Y-7285D01*
X30464Y-7285D02*
X30502Y-7266D01*
X30521Y-7247D01*
X30539Y-7210D01*
X30539Y-7097D01*
X30521Y-7060D01*
X30502Y-7041D01*
X30464Y-7022D01*
X30408Y-7022D01*
X30371Y-7041D01*
X30352Y-7060D01*
X30333Y-7097D01*
X30333Y-7210D01*
X30352Y-7247D01*
X30371Y-7266D01*
X30408Y-7285D01*
X30464Y-7285D01*
X30164Y-7285D02*
X30164Y-7022D01*
X30164Y-7097D02*
X30146Y-7060D01*
X30127Y-7041D01*
X30089Y-7022D01*
X30052Y-7022D01*
X29921Y-7285D02*
X29921Y-7022D01*
X29921Y-6891D02*
X29940Y-6910D01*
X29921Y-6929D01*
X29902Y-6910D01*
X29921Y-6891D01*
X29921Y-6929D01*
X29752Y-7266D02*
X29715Y-7285D01*
X29640Y-7285D01*
X29602Y-7266D01*
X29583Y-7229D01*
X29583Y-7210D01*
X29602Y-7172D01*
X29640Y-7154D01*
X29696Y-7154D01*
X29733Y-7135D01*
X29752Y-7097D01*
X29752Y-7079D01*
X29733Y-7041D01*
X29696Y-7022D01*
X29640Y-7022D01*
X29602Y-7041D01*
X29265Y-7266D02*
X29302Y-7285D01*
X29377Y-7285D01*
X29415Y-7266D01*
X29433Y-7229D01*
X29433Y-7079D01*
X29415Y-7041D01*
X29377Y-7022D01*
X29302Y-7022D01*
X29265Y-7041D01*
X29246Y-7079D01*
X29246Y-7116D01*
X29433Y-7154D01*
X28908Y-7285D02*
X28908Y-6891D01*
X28908Y-7266D02*
X28946Y-7285D01*
X29021Y-7285D01*
X29058Y-7266D01*
X29077Y-7247D01*
X29096Y-7210D01*
X29096Y-7097D01*
X29077Y-7060D01*
X29058Y-7041D01*
X29021Y-7022D01*
X28946Y-7022D01*
X28908Y-7041D01*
X28440Y-7266D02*
X28402Y-7285D01*
X28327Y-7285D01*
X28290Y-7266D01*
X28271Y-7229D01*
X28271Y-7210D01*
X28290Y-7172D01*
X28327Y-7154D01*
X28383Y-7154D01*
X28421Y-7135D01*
X28440Y-7097D01*
X28440Y-7079D01*
X28421Y-7041D01*
X28383Y-7022D01*
X28327Y-7022D01*
X28290Y-7041D01*
X28046Y-7285D02*
X28083Y-7266D01*
X28102Y-7229D01*
X28102Y-6891D01*
X27896Y-7285D02*
X27896Y-7022D01*
X27896Y-6891D02*
X27915Y-6910D01*
X27896Y-6929D01*
X27877Y-6910D01*
X27896Y-6891D01*
X27896Y-6929D01*
X27540Y-7285D02*
X27540Y-6891D01*
X27540Y-7266D02*
X27577Y-7285D01*
X27652Y-7285D01*
X27690Y-7266D01*
X27709Y-7247D01*
X27727Y-7210D01*
X27727Y-7097D01*
X27709Y-7060D01*
X27690Y-7041D01*
X27652Y-7022D01*
X27577Y-7022D01*
X27540Y-7041D01*
X27202Y-7266D02*
X27240Y-7285D01*
X27315Y-7285D01*
X27352Y-7266D01*
X27371Y-7229D01*
X27371Y-7079D01*
X27352Y-7041D01*
X27315Y-7022D01*
X27240Y-7022D01*
X27202Y-7041D01*
X27184Y-7079D01*
X27184Y-7116D01*
X27371Y-7154D01*
X27015Y-7285D02*
X27015Y-7022D01*
X27015Y-7097D02*
X26996Y-7060D01*
X26977Y-7041D01*
X26940Y-7022D01*
X26902Y-7022D01*
X38713Y-7934D02*
X38713Y-7541D01*
X38620Y-7541D01*
X38563Y-7559D01*
X38526Y-7597D01*
X38507Y-7634D01*
X38488Y-7709D01*
X38488Y-7766D01*
X38507Y-7841D01*
X38526Y-7878D01*
X38563Y-7916D01*
X38620Y-7934D01*
X38713Y-7934D01*
X38170Y-7916D02*
X38207Y-7934D01*
X38282Y-7934D01*
X38320Y-7916D01*
X38338Y-7878D01*
X38338Y-7728D01*
X38320Y-7691D01*
X38282Y-7672D01*
X38207Y-7672D01*
X38170Y-7691D01*
X38151Y-7728D01*
X38151Y-7766D01*
X38338Y-7803D01*
X38001Y-7916D02*
X37964Y-7934D01*
X37889Y-7934D01*
X37851Y-7916D01*
X37832Y-7878D01*
X37832Y-7859D01*
X37851Y-7822D01*
X37889Y-7803D01*
X37945Y-7803D01*
X37982Y-7784D01*
X38001Y-7747D01*
X38001Y-7728D01*
X37982Y-7691D01*
X37945Y-7672D01*
X37889Y-7672D01*
X37851Y-7691D01*
X37664Y-7934D02*
X37664Y-7672D01*
X37664Y-7541D02*
X37682Y-7559D01*
X37664Y-7578D01*
X37645Y-7559D01*
X37664Y-7541D01*
X37664Y-7578D01*
X37307Y-7672D02*
X37307Y-7991D01*
X37326Y-8028D01*
X37345Y-8047D01*
X37382Y-8066D01*
X37439Y-8066D01*
X37476Y-8047D01*
X37307Y-7916D02*
X37345Y-7934D01*
X37420Y-7934D01*
X37457Y-7916D01*
X37476Y-7897D01*
X37495Y-7859D01*
X37495Y-7747D01*
X37476Y-7709D01*
X37457Y-7691D01*
X37420Y-7672D01*
X37345Y-7672D01*
X37307Y-7691D01*
X37120Y-7672D02*
X37120Y-7934D01*
X37120Y-7709D02*
X37101Y-7691D01*
X37064Y-7672D01*
X37007Y-7672D01*
X36970Y-7691D01*
X36951Y-7728D01*
X36951Y-7934D01*
X36614Y-7916D02*
X36651Y-7934D01*
X36726Y-7934D01*
X36764Y-7916D01*
X36782Y-7878D01*
X36782Y-7728D01*
X36764Y-7691D01*
X36726Y-7672D01*
X36651Y-7672D01*
X36614Y-7691D01*
X36595Y-7728D01*
X36595Y-7766D01*
X36782Y-7803D01*
X36257Y-7934D02*
X36257Y-7541D01*
X36257Y-7916D02*
X36295Y-7934D01*
X36370Y-7934D01*
X36407Y-7916D01*
X36426Y-7897D01*
X36445Y-7859D01*
X36445Y-7747D01*
X36426Y-7709D01*
X36407Y-7691D01*
X36370Y-7672D01*
X36295Y-7672D01*
X36257Y-7691D01*
X35770Y-7934D02*
X35770Y-7541D01*
X35770Y-7691D02*
X35733Y-7672D01*
X35658Y-7672D01*
X35620Y-7691D01*
X35601Y-7709D01*
X35583Y-7747D01*
X35583Y-7859D01*
X35601Y-7897D01*
X35620Y-7916D01*
X35658Y-7934D01*
X35733Y-7934D01*
X35770Y-7916D01*
X35451Y-7672D02*
X35358Y-7934D01*
X35264Y-7672D02*
X35358Y-7934D01*
X35395Y-8028D01*
X35414Y-8047D01*
X35451Y-8066D01*
X34701Y-7541D02*
X34701Y-7822D01*
X34720Y-7878D01*
X34758Y-7916D01*
X34814Y-7934D01*
X34851Y-7934D01*
X34458Y-7934D02*
X34495Y-7916D01*
X34514Y-7897D01*
X34533Y-7859D01*
X34533Y-7747D01*
X34514Y-7709D01*
X34495Y-7691D01*
X34458Y-7672D01*
X34401Y-7672D01*
X34364Y-7691D01*
X34345Y-7709D01*
X34326Y-7747D01*
X34326Y-7859D01*
X34345Y-7897D01*
X34364Y-7916D01*
X34401Y-7934D01*
X34458Y-7934D01*
X34158Y-7934D02*
X34158Y-7541D01*
X33989Y-7934D02*
X33989Y-7728D01*
X34008Y-7691D01*
X34045Y-7672D01*
X34101Y-7672D01*
X34139Y-7691D01*
X34158Y-7709D01*
X33802Y-7672D02*
X33802Y-7934D01*
X33802Y-7709D02*
X33783Y-7691D01*
X33745Y-7672D01*
X33689Y-7672D01*
X33652Y-7691D01*
X33633Y-7728D01*
X33633Y-7934D01*
X33164Y-7916D02*
X33108Y-7934D01*
X33014Y-7934D01*
X32977Y-7916D01*
X32958Y-7897D01*
X32939Y-7859D01*
X32939Y-7822D01*
X32958Y-7784D01*
X32977Y-7766D01*
X33014Y-7747D01*
X33089Y-7728D01*
X33127Y-7709D01*
X33145Y-7691D01*
X33164Y-7653D01*
X33164Y-7616D01*
X33145Y-7578D01*
X33127Y-7559D01*
X33089Y-7541D01*
X32995Y-7541D01*
X32939Y-7559D01*
X32770Y-7672D02*
X32770Y-8066D01*
X32770Y-7691D02*
X32733Y-7672D01*
X32658Y-7672D01*
X32620Y-7691D01*
X32602Y-7709D01*
X32583Y-7747D01*
X32583Y-7859D01*
X32602Y-7897D01*
X32620Y-7916D01*
X32658Y-7934D01*
X32733Y-7934D01*
X32770Y-7916D01*
X32264Y-7916D02*
X32302Y-7934D01*
X32377Y-7934D01*
X32414Y-7916D01*
X32433Y-7878D01*
X32433Y-7728D01*
X32414Y-7691D01*
X32377Y-7672D01*
X32302Y-7672D01*
X32264Y-7691D01*
X32245Y-7728D01*
X32245Y-7766D01*
X32433Y-7803D01*
X32077Y-7672D02*
X32077Y-7934D01*
X32077Y-7709D02*
X32058Y-7691D01*
X32020Y-7672D01*
X31964Y-7672D01*
X31927Y-7691D01*
X31908Y-7728D01*
X31908Y-7934D01*
X31552Y-7916D02*
X31589Y-7934D01*
X31664Y-7934D01*
X31702Y-7916D01*
X31721Y-7897D01*
X31739Y-7859D01*
X31739Y-7747D01*
X31721Y-7709D01*
X31702Y-7691D01*
X31664Y-7672D01*
X31589Y-7672D01*
X31552Y-7691D01*
X31233Y-7916D02*
X31271Y-7934D01*
X31346Y-7934D01*
X31383Y-7916D01*
X31402Y-7878D01*
X31402Y-7728D01*
X31383Y-7691D01*
X31346Y-7672D01*
X31271Y-7672D01*
X31233Y-7691D01*
X31214Y-7728D01*
X31214Y-7766D01*
X31402Y-7803D01*
X31046Y-7934D02*
X31046Y-7672D01*
X31046Y-7747D02*
X31027Y-7709D01*
X31008Y-7691D01*
X30971Y-7672D01*
X30933Y-7672D01*
X30783Y-7916D02*
X30783Y-7934D01*
X30802Y-7972D01*
X30821Y-7991D01*
X30333Y-7578D02*
X30314Y-7559D01*
X30277Y-7541D01*
X30183Y-7541D01*
X30146Y-7559D01*
X30127Y-7578D01*
X30108Y-7616D01*
X30108Y-7653D01*
X30127Y-7709D01*
X30352Y-7934D01*
X30108Y-7934D01*
X29865Y-7541D02*
X29827Y-7541D01*
X29790Y-7559D01*
X29771Y-7578D01*
X29752Y-7616D01*
X29733Y-7691D01*
X29733Y-7784D01*
X29752Y-7859D01*
X29771Y-7897D01*
X29790Y-7916D01*
X29827Y-7934D01*
X29865Y-7934D01*
X29902Y-7916D01*
X29921Y-7897D01*
X29940Y-7859D01*
X29958Y-7784D01*
X29958Y-7691D01*
X29940Y-7616D01*
X29921Y-7578D01*
X29902Y-7559D01*
X29865Y-7541D01*
X29358Y-7934D02*
X29583Y-7934D01*
X29471Y-7934D02*
X29471Y-7541D01*
X29508Y-7597D01*
X29546Y-7634D01*
X29583Y-7653D01*
X29021Y-7672D02*
X29021Y-7934D01*
X29115Y-7522D02*
X29208Y-7803D01*
X28965Y-7803D01*
X42960Y-8584D02*
X42960Y-8190D01*
X42791Y-8584D02*
X42791Y-8378D01*
X42810Y-8340D01*
X42847Y-8322D01*
X42904Y-8322D01*
X42941Y-8340D01*
X42960Y-8359D01*
X42660Y-8322D02*
X42510Y-8322D01*
X42604Y-8190D02*
X42604Y-8528D01*
X42585Y-8565D01*
X42547Y-8584D01*
X42510Y-8584D01*
X42435Y-8322D02*
X42285Y-8322D01*
X42379Y-8190D02*
X42379Y-8528D01*
X42360Y-8565D01*
X42322Y-8584D01*
X42285Y-8584D01*
X42154Y-8322D02*
X42154Y-8715D01*
X42154Y-8340D02*
X42116Y-8322D01*
X42041Y-8322D01*
X42004Y-8340D01*
X41985Y-8359D01*
X41966Y-8397D01*
X41966Y-8509D01*
X41985Y-8547D01*
X42004Y-8565D01*
X42041Y-8584D01*
X42116Y-8584D01*
X42154Y-8565D01*
X41816Y-8565D02*
X41779Y-8584D01*
X41704Y-8584D01*
X41666Y-8565D01*
X41647Y-8528D01*
X41647Y-8509D01*
X41666Y-8472D01*
X41704Y-8453D01*
X41760Y-8453D01*
X41797Y-8434D01*
X41816Y-8397D01*
X41816Y-8378D01*
X41797Y-8340D01*
X41760Y-8322D01*
X41704Y-8322D01*
X41666Y-8340D01*
X41479Y-8547D02*
X41460Y-8565D01*
X41479Y-8584D01*
X41497Y-8565D01*
X41479Y-8547D01*
X41479Y-8584D01*
X41479Y-8340D02*
X41460Y-8359D01*
X41479Y-8378D01*
X41497Y-8359D01*
X41479Y-8340D01*
X41479Y-8378D01*
X41010Y-8172D02*
X41347Y-8678D01*
X40598Y-8172D02*
X40935Y-8678D01*
X40298Y-8322D02*
X40298Y-8640D01*
X40316Y-8678D01*
X40335Y-8697D01*
X40373Y-8715D01*
X40429Y-8715D01*
X40466Y-8697D01*
X40298Y-8565D02*
X40335Y-8584D01*
X40410Y-8584D01*
X40448Y-8565D01*
X40466Y-8547D01*
X40485Y-8509D01*
X40485Y-8397D01*
X40466Y-8359D01*
X40448Y-8340D01*
X40410Y-8322D01*
X40335Y-8322D01*
X40298Y-8340D01*
X40110Y-8584D02*
X40110Y-8322D01*
X40110Y-8190D02*
X40129Y-8209D01*
X40110Y-8228D01*
X40091Y-8209D01*
X40110Y-8190D01*
X40110Y-8228D01*
X39979Y-8322D02*
X39829Y-8322D01*
X39923Y-8190D02*
X39923Y-8528D01*
X39904Y-8565D01*
X39866Y-8584D01*
X39829Y-8584D01*
X39698Y-8584D02*
X39698Y-8190D01*
X39529Y-8584D02*
X39529Y-8378D01*
X39548Y-8340D01*
X39585Y-8322D01*
X39641Y-8322D01*
X39679Y-8340D01*
X39698Y-8359D01*
X39173Y-8322D02*
X39173Y-8584D01*
X39341Y-8322D02*
X39341Y-8528D01*
X39323Y-8565D01*
X39285Y-8584D01*
X39229Y-8584D01*
X39191Y-8565D01*
X39173Y-8547D01*
X38985Y-8584D02*
X38985Y-8190D01*
X38985Y-8340D02*
X38948Y-8322D01*
X38873Y-8322D01*
X38835Y-8340D01*
X38817Y-8359D01*
X38798Y-8397D01*
X38798Y-8509D01*
X38817Y-8547D01*
X38835Y-8565D01*
X38873Y-8584D01*
X38948Y-8584D01*
X38985Y-8565D01*
X38629Y-8547D02*
X38610Y-8565D01*
X38629Y-8584D01*
X38648Y-8565D01*
X38629Y-8547D01*
X38629Y-8584D01*
X38273Y-8565D02*
X38310Y-8584D01*
X38385Y-8584D01*
X38423Y-8565D01*
X38442Y-8547D01*
X38460Y-8509D01*
X38460Y-8397D01*
X38442Y-8359D01*
X38423Y-8340D01*
X38385Y-8322D01*
X38310Y-8322D01*
X38273Y-8340D01*
X38048Y-8584D02*
X38085Y-8565D01*
X38104Y-8547D01*
X38123Y-8509D01*
X38123Y-8397D01*
X38104Y-8359D01*
X38085Y-8340D01*
X38048Y-8322D01*
X37992Y-8322D01*
X37954Y-8340D01*
X37935Y-8359D01*
X37917Y-8397D01*
X37917Y-8509D01*
X37935Y-8547D01*
X37954Y-8565D01*
X37992Y-8584D01*
X38048Y-8584D01*
X37748Y-8584D02*
X37748Y-8322D01*
X37748Y-8359D02*
X37729Y-8340D01*
X37692Y-8322D01*
X37635Y-8322D01*
X37598Y-8340D01*
X37579Y-8378D01*
X37579Y-8584D01*
X37579Y-8378D02*
X37560Y-8340D01*
X37523Y-8322D01*
X37467Y-8322D01*
X37429Y-8340D01*
X37410Y-8378D01*
X37410Y-8584D01*
X36942Y-8172D02*
X37279Y-8678D01*
X36811Y-8584D02*
X36811Y-8322D01*
X36811Y-8359D02*
X36792Y-8340D01*
X36754Y-8322D01*
X36698Y-8322D01*
X36661Y-8340D01*
X36642Y-8378D01*
X36642Y-8584D01*
X36642Y-8378D02*
X36623Y-8340D01*
X36586Y-8322D01*
X36529Y-8322D01*
X36492Y-8340D01*
X36473Y-8378D01*
X36473Y-8584D01*
X36117Y-8584D02*
X36117Y-8378D01*
X36136Y-8340D01*
X36173Y-8322D01*
X36248Y-8322D01*
X36286Y-8340D01*
X36117Y-8565D02*
X36154Y-8584D01*
X36248Y-8584D01*
X36286Y-8565D01*
X36304Y-8528D01*
X36304Y-8490D01*
X36286Y-8453D01*
X36248Y-8434D01*
X36154Y-8434D01*
X36117Y-8415D01*
X35761Y-8322D02*
X35761Y-8640D01*
X35779Y-8678D01*
X35798Y-8697D01*
X35836Y-8715D01*
X35892Y-8715D01*
X35929Y-8697D01*
X35761Y-8565D02*
X35798Y-8584D01*
X35873Y-8584D01*
X35911Y-8565D01*
X35929Y-8547D01*
X35948Y-8509D01*
X35948Y-8397D01*
X35929Y-8359D01*
X35911Y-8340D01*
X35873Y-8322D01*
X35798Y-8322D01*
X35761Y-8340D01*
X35423Y-8565D02*
X35461Y-8584D01*
X35536Y-8584D01*
X35573Y-8565D01*
X35592Y-8528D01*
X35592Y-8378D01*
X35573Y-8340D01*
X35536Y-8322D01*
X35461Y-8322D01*
X35423Y-8340D01*
X35404Y-8378D01*
X35404Y-8415D01*
X35592Y-8453D01*
X35161Y-8190D02*
X35123Y-8190D01*
X35086Y-8209D01*
X35067Y-8228D01*
X35048Y-8265D01*
X35029Y-8340D01*
X35029Y-8434D01*
X35048Y-8509D01*
X35067Y-8547D01*
X35086Y-8565D01*
X35123Y-8584D01*
X35161Y-8584D01*
X35198Y-8565D01*
X35217Y-8547D01*
X35236Y-8509D01*
X35254Y-8434D01*
X35254Y-8340D01*
X35236Y-8265D01*
X35217Y-8228D01*
X35198Y-8209D01*
X35161Y-8190D01*
X34861Y-8584D02*
X34861Y-8322D01*
X34861Y-8397D02*
X34842Y-8359D01*
X34823Y-8340D01*
X34786Y-8322D01*
X34748Y-8322D01*
X34336Y-8172D02*
X34673Y-8678D01*
X33980Y-8584D02*
X34111Y-8397D01*
X34205Y-8584D02*
X34205Y-8190D01*
X34055Y-8190D01*
X34017Y-8209D01*
X33998Y-8228D01*
X33980Y-8265D01*
X33980Y-8322D01*
X33998Y-8359D01*
X34017Y-8378D01*
X34055Y-8397D01*
X34205Y-8397D01*
X33830Y-8565D02*
X33773Y-8584D01*
X33680Y-8584D01*
X33642Y-8565D01*
X33623Y-8547D01*
X33605Y-8509D01*
X33605Y-8472D01*
X33623Y-8434D01*
X33642Y-8415D01*
X33680Y-8397D01*
X33755Y-8378D01*
X33792Y-8359D01*
X33811Y-8340D01*
X33830Y-8303D01*
X33830Y-8265D01*
X33811Y-8228D01*
X33792Y-8209D01*
X33755Y-8190D01*
X33661Y-8190D01*
X33605Y-8209D01*
X33455Y-8472D02*
X33267Y-8472D01*
X33492Y-8584D02*
X33361Y-8190D01*
X33230Y-8584D01*
X33023Y-8190D02*
X32986Y-8190D01*
X32949Y-8209D01*
X32930Y-8228D01*
X32911Y-8265D01*
X32892Y-8340D01*
X32892Y-8434D01*
X32911Y-8509D01*
X32930Y-8547D01*
X32949Y-8565D01*
X32986Y-8584D01*
X33023Y-8584D01*
X33061Y-8565D01*
X33080Y-8547D01*
X33098Y-8509D01*
X33117Y-8434D01*
X33117Y-8340D01*
X33098Y-8265D01*
X33080Y-8228D01*
X33061Y-8209D01*
X33023Y-8190D01*
X32724Y-8584D02*
X32724Y-8190D01*
X32499Y-8584D01*
X32499Y-8190D01*
X32105Y-8584D02*
X32330Y-8584D01*
X32217Y-8584D02*
X32217Y-8190D01*
X32255Y-8247D01*
X32292Y-8284D01*
X32330Y-8303D01*
X31730Y-8584D02*
X31955Y-8584D01*
X31842Y-8584D02*
X31842Y-8190D01*
X31880Y-8247D01*
X31917Y-8284D01*
X31955Y-8303D01*
X31561Y-8584D02*
X31561Y-8190D01*
X31430Y-8472D01*
X31299Y-8190D01*
X31299Y-8584D01*
X31092Y-8584D02*
X31017Y-8584D01*
X30980Y-8565D01*
X30961Y-8547D01*
X30924Y-8490D01*
X30905Y-8415D01*
X30905Y-8265D01*
X30924Y-8228D01*
X30943Y-8209D01*
X30980Y-8190D01*
X31055Y-8190D01*
X31092Y-8209D01*
X31111Y-8228D01*
X31130Y-8265D01*
X31130Y-8359D01*
X31111Y-8397D01*
X31092Y-8415D01*
X31055Y-8434D01*
X30980Y-8434D01*
X30943Y-8415D01*
X30924Y-8397D01*
X30905Y-8359D01*
X30755Y-8472D02*
X30568Y-8472D01*
X30793Y-8584D02*
X30661Y-8190D01*
X30530Y-8584D01*
X30324Y-8190D02*
X30286Y-8190D01*
X30249Y-8209D01*
X30230Y-8228D01*
X30211Y-8265D01*
X30193Y-8340D01*
X30193Y-8434D01*
X30211Y-8509D01*
X30230Y-8547D01*
X30249Y-8565D01*
X30286Y-8584D01*
X30324Y-8584D01*
X30361Y-8565D01*
X30380Y-8547D01*
X30399Y-8509D01*
X30418Y-8434D01*
X30418Y-8340D01*
X30399Y-8265D01*
X30380Y-8228D01*
X30361Y-8209D01*
X30324Y-8190D01*
X29911Y-8190D02*
X29911Y-8472D01*
X29930Y-8528D01*
X29968Y-8565D01*
X30024Y-8584D01*
X30061Y-8584D01*
X29818Y-8622D02*
X29518Y-8622D01*
X29424Y-8584D02*
X29424Y-8322D01*
X29424Y-8359D02*
X29405Y-8340D01*
X29368Y-8322D01*
X29311Y-8322D01*
X29274Y-8340D01*
X29255Y-8378D01*
X29255Y-8584D01*
X29255Y-8378D02*
X29236Y-8340D01*
X29199Y-8322D01*
X29143Y-8322D01*
X29105Y-8340D01*
X29086Y-8378D01*
X29086Y-8584D01*
X28843Y-8584D02*
X28880Y-8565D01*
X28899Y-8547D01*
X28918Y-8509D01*
X28918Y-8397D01*
X28899Y-8359D01*
X28880Y-8340D01*
X28843Y-8322D01*
X28787Y-8322D01*
X28749Y-8340D01*
X28730Y-8359D01*
X28712Y-8397D01*
X28712Y-8509D01*
X28730Y-8547D01*
X28749Y-8565D01*
X28787Y-8584D01*
X28843Y-8584D01*
X28599Y-8322D02*
X28449Y-8322D01*
X28543Y-8190D02*
X28543Y-8528D01*
X28524Y-8565D01*
X28487Y-8584D01*
X28449Y-8584D01*
X28262Y-8584D02*
X28299Y-8565D01*
X28318Y-8547D01*
X28337Y-8509D01*
X28337Y-8397D01*
X28318Y-8359D01*
X28299Y-8340D01*
X28262Y-8322D01*
X28205Y-8322D01*
X28168Y-8340D01*
X28149Y-8359D01*
X28130Y-8397D01*
X28130Y-8509D01*
X28149Y-8547D01*
X28168Y-8565D01*
X28205Y-8584D01*
X28262Y-8584D01*
X27962Y-8584D02*
X27962Y-8322D01*
X27962Y-8397D02*
X27943Y-8359D01*
X27924Y-8340D01*
X27887Y-8322D01*
X27849Y-8322D01*
X27718Y-8584D02*
X27718Y-8322D01*
X27718Y-8190D02*
X27737Y-8209D01*
X27718Y-8228D01*
X27699Y-8209D01*
X27718Y-8190D01*
X27718Y-8228D01*
X27549Y-8565D02*
X27512Y-8584D01*
X27437Y-8584D01*
X27399Y-8565D01*
X27380Y-8528D01*
X27380Y-8509D01*
X27399Y-8472D01*
X27437Y-8453D01*
X27493Y-8453D01*
X27530Y-8434D01*
X27549Y-8397D01*
X27549Y-8378D01*
X27530Y-8340D01*
X27493Y-8322D01*
X27437Y-8322D01*
X27399Y-8340D01*
X27062Y-8565D02*
X27099Y-8584D01*
X27174Y-8584D01*
X27212Y-8565D01*
X27230Y-8528D01*
X27230Y-8378D01*
X27212Y-8340D01*
X27174Y-8322D01*
X27099Y-8322D01*
X27062Y-8340D01*
X27043Y-8378D01*
X27043Y-8415D01*
X27230Y-8453D01*
X26706Y-8584D02*
X26706Y-8190D01*
X26706Y-8565D02*
X26743Y-8584D01*
X26818Y-8584D01*
X26856Y-8565D01*
X26874Y-8547D01*
X26893Y-8509D01*
X26893Y-8397D01*
X26874Y-8359D01*
X26856Y-8340D01*
X26818Y-8322D01*
X26743Y-8322D01*
X26706Y-8340D01*
X26612Y-8622D02*
X26312Y-8622D01*
X26237Y-8565D02*
X26199Y-8584D01*
X26124Y-8584D01*
X26087Y-8565D01*
X26068Y-8528D01*
X26068Y-8509D01*
X26087Y-8472D01*
X26124Y-8453D01*
X26181Y-8453D01*
X26218Y-8434D01*
X26237Y-8397D01*
X26237Y-8378D01*
X26218Y-8340D01*
X26181Y-8322D01*
X26124Y-8322D01*
X26087Y-8340D01*
X25843Y-8584D02*
X25881Y-8565D01*
X25899Y-8528D01*
X25899Y-8190D01*
X25693Y-8584D02*
X25693Y-8322D01*
X25693Y-8190D02*
X25712Y-8209D01*
X25693Y-8228D01*
X25674Y-8209D01*
X25693Y-8190D01*
X25693Y-8228D01*
X25337Y-8584D02*
X25337Y-8190D01*
X25337Y-8565D02*
X25374Y-8584D01*
X25449Y-8584D01*
X25487Y-8565D01*
X25506Y-8547D01*
X25524Y-8509D01*
X25524Y-8397D01*
X25506Y-8359D01*
X25487Y-8340D01*
X25449Y-8322D01*
X25374Y-8322D01*
X25337Y-8340D01*
X24999Y-8565D02*
X25037Y-8584D01*
X25112Y-8584D01*
X25149Y-8565D01*
X25168Y-8528D01*
X25168Y-8378D01*
X25149Y-8340D01*
X25112Y-8322D01*
X25037Y-8322D01*
X24999Y-8340D01*
X24981Y-8378D01*
X24981Y-8415D01*
X25168Y-8453D01*
X24812Y-8584D02*
X24812Y-8322D01*
X24812Y-8397D02*
X24793Y-8359D01*
X24775Y-8340D01*
X24737Y-8322D01*
X24700Y-8322D01*
X35508Y-8840D02*
X35376Y-9234D01*
X35245Y-8840D01*
X34964Y-9215D02*
X35001Y-9234D01*
X35076Y-9234D01*
X35114Y-9215D01*
X35133Y-9177D01*
X35133Y-9027D01*
X35114Y-8990D01*
X35076Y-8971D01*
X35001Y-8971D01*
X34964Y-8990D01*
X34945Y-9027D01*
X34945Y-9065D01*
X35133Y-9102D01*
X34776Y-9234D02*
X34776Y-8971D01*
X34776Y-9046D02*
X34758Y-9009D01*
X34739Y-8990D01*
X34701Y-8971D01*
X34664Y-8971D01*
X34551Y-9215D02*
X34514Y-9234D01*
X34439Y-9234D01*
X34401Y-9215D01*
X34383Y-9177D01*
X34383Y-9159D01*
X34401Y-9121D01*
X34439Y-9102D01*
X34495Y-9102D01*
X34533Y-9084D01*
X34551Y-9046D01*
X34551Y-9027D01*
X34533Y-8990D01*
X34495Y-8971D01*
X34439Y-8971D01*
X34401Y-8990D01*
X34214Y-9234D02*
X34214Y-8971D01*
X34214Y-8840D02*
X34233Y-8859D01*
X34214Y-8877D01*
X34195Y-8859D01*
X34214Y-8840D01*
X34214Y-8877D01*
X33970Y-9234D02*
X34008Y-9215D01*
X34026Y-9196D01*
X34045Y-9159D01*
X34045Y-9046D01*
X34026Y-9009D01*
X34008Y-8990D01*
X33970Y-8971D01*
X33914Y-8971D01*
X33877Y-8990D01*
X33858Y-9009D01*
X33839Y-9046D01*
X33839Y-9159D01*
X33858Y-9196D01*
X33877Y-9215D01*
X33914Y-9234D01*
X33970Y-9234D01*
X33670Y-8971D02*
X33670Y-9234D01*
X33670Y-9009D02*
X33652Y-8990D01*
X33614Y-8971D01*
X33558Y-8971D01*
X33520Y-8990D01*
X33502Y-9027D01*
X33502Y-9234D01*
X32808Y-9234D02*
X33033Y-9234D01*
X32920Y-9234D02*
X32920Y-8840D01*
X32958Y-8896D01*
X32995Y-8934D01*
X33033Y-8952D01*
X32639Y-9196D02*
X32620Y-9215D01*
X32639Y-9234D01*
X32658Y-9215D01*
X32639Y-9196D01*
X32639Y-9234D01*
X32470Y-8877D02*
X32452Y-8859D01*
X32414Y-8840D01*
X32320Y-8840D01*
X32283Y-8859D01*
X32264Y-8877D01*
X32245Y-8915D01*
X32245Y-8952D01*
X32264Y-9009D01*
X32489Y-9234D01*
X32245Y-9234D01*
M02*
