M48
;DRILL file {Pcbnew (2013-07-07 BZR 4022)-stable} date 26/01/2014 9:49:01 PM
;FORMAT={-:-/ absolute / inch / decimal}
FMAT,2
INCH,TZ
T1C0.024
T2C0.025
T3C0.032
T4C0.039
T5C0.040
T6C0.043
T7C0.059
%
G90
G05
M72
T1
X0.9764Y-1.2933
X0.9764Y-1.8839
X1.0748Y-1.2933
X1.0748Y-1.8839
X1.1732Y-1.2933
X1.1732Y-1.8839
X1.2717Y-1.2933
X1.2717Y-1.8839
X1.3701Y-1.2933
X1.3701Y-1.8839
X1.4685Y-1.2933
X1.4685Y-1.8839
T2
X0.6264Y-1.746
X0.6284Y-1.3427
X0.6933Y-1.9287
X0.8606Y-1.7994
X0.8765Y-1.4425
X0.9509Y-1.7871
X1.1003Y-1.4816
X1.4233Y-1.7431
X1.4961Y-1.7707
X1.724Y-1.6596
X1.7243Y-1.4707
X1.776Y-1.9369
X1.9174Y-1.2599
X2.3814Y-0.8562
X2.4387Y-0.8497
X3.1118Y-0.9234
X3.2067Y-1.0405
T3
X1.35Y-0.8567
X1.35Y-1.0567
X1.65Y-0.8567
X1.65Y-1.0567
X2.9732Y-0.5906
X3.3732Y-0.5906
T4
X1.5453Y-0.5787
X3.4823Y-1.0354
X3.6594Y-1.0354
X3.8366Y-1.0354
X4.1043Y-1.0354
T5
X1.8335Y-0.6417
X1.8819Y-1.3709
X1.8819Y-1.4709
X1.8819Y-1.5709
X1.8819Y-1.6709
X1.8819Y-1.7709
X1.9335Y-0.6417
X2.0335Y-0.6417
X2.1335Y-0.6417
X2.2335Y-0.6417
X2.2701Y-0.9402
X2.2701Y-1.0402
X2.3701Y-0.9402
X2.3701Y-1.0402
X2.4701Y-0.9402
X2.4701Y-1.0402
X2.4913Y-0.6378
X2.5913Y-0.6378
T6
X0.5906Y-0.6093
X0.5906Y-0.7569
X0.5906Y-1.0522
X0.5915Y-0.9045
X4.2598Y-0.6732
X4.2598Y-0.9882
T7
X0.8661Y-0.6093
X0.8661Y-1.0522
T0
M30
