G04 (created by PCBNEW (2013-07-07 BZR 4022)-stable) date 26/01/2014 9:48:07 PM*
%MOIN*%
G04 Gerber Fmt 3.4, Leading zero omitted, Abs format*
%FSLAX34Y34*%
G01*
G70*
G90*
G04 APERTURE LIST*
%ADD10C,0.00590551*%
%ADD11R,0.05X0.025*%
%ADD12R,0.055X0.035*%
%ADD13C,0.06*%
%ADD14C,0.11811*%
%ADD15R,0.0393701X0.0787402*%
%ADD16C,0.055*%
%ADD17R,0.025X0.05*%
%ADD18R,0.06X0.06*%
%ADD19C,0.137795*%
%ADD20R,0.0787402X0.0787402*%
%ADD21C,0.0787402*%
G04 APERTURE END LIST*
G54D10*
G54D11*
X40686Y-7442D03*
X40686Y-6942D03*
X40686Y-6442D03*
X40686Y-5942D03*
X38486Y-5942D03*
X38486Y-6442D03*
X38486Y-6942D03*
X38486Y-7442D03*
G54D12*
X35551Y-5904D03*
X35551Y-6654D03*
X34783Y-5904D03*
X34783Y-6654D03*
X36318Y-5904D03*
X36318Y-6654D03*
X37086Y-5904D03*
X37086Y-6654D03*
X41515Y-7225D03*
X41515Y-6475D03*
G54D13*
X29732Y-5905D03*
X33732Y-5905D03*
G54D14*
X15452Y-5787D03*
X34822Y-10354D03*
X41043Y-10354D03*
X36594Y-10354D03*
X38366Y-10354D03*
G54D15*
X39311Y-10354D03*
X40098Y-10354D03*
G54D16*
X13500Y-10566D03*
X13500Y-8566D03*
X16500Y-10566D03*
X16500Y-8566D03*
G54D11*
X15573Y-14706D03*
X15573Y-15206D03*
X15573Y-15706D03*
X15573Y-16206D03*
X15573Y-16706D03*
X15573Y-17206D03*
X15573Y-17706D03*
X15573Y-18206D03*
X17773Y-18206D03*
X17773Y-17706D03*
X17773Y-17206D03*
X17773Y-16706D03*
X17773Y-16206D03*
X17773Y-15706D03*
X17773Y-15206D03*
X17773Y-14706D03*
X7930Y-17891D03*
X7930Y-17391D03*
X7930Y-16891D03*
X7930Y-16391D03*
X7930Y-15891D03*
X7930Y-15391D03*
X7930Y-14891D03*
X7930Y-14391D03*
X5730Y-14391D03*
X5730Y-14891D03*
X5730Y-15391D03*
X5730Y-15891D03*
X5730Y-16391D03*
X5730Y-16891D03*
X5730Y-17391D03*
X5730Y-17891D03*
G54D17*
X28736Y-10844D03*
X29236Y-10844D03*
X29736Y-10844D03*
X30236Y-10844D03*
X30736Y-10844D03*
X31236Y-10844D03*
X31736Y-10844D03*
X31736Y-8644D03*
X31236Y-8644D03*
X30736Y-8644D03*
X30236Y-8644D03*
X29736Y-8644D03*
X29236Y-8644D03*
X28736Y-8644D03*
G54D12*
X10629Y-14252D03*
X10629Y-13502D03*
X9881Y-14252D03*
X9881Y-13502D03*
X12618Y-14252D03*
X12618Y-13502D03*
X13877Y-14233D03*
X13877Y-13483D03*
X14625Y-14233D03*
X14625Y-13483D03*
X12933Y-17499D03*
X12933Y-18249D03*
X10728Y-17499D03*
X10728Y-18249D03*
X9980Y-17499D03*
X9980Y-18249D03*
X11870Y-14252D03*
X11870Y-13502D03*
X13681Y-17499D03*
X13681Y-18249D03*
X11751Y-17479D03*
X11751Y-18229D03*
G54D18*
X24913Y-6377D03*
G54D13*
X25913Y-6377D03*
G54D18*
X22700Y-10401D03*
G54D13*
X22700Y-9401D03*
X23700Y-10401D03*
X23700Y-9401D03*
X24700Y-10401D03*
X24700Y-9401D03*
G54D18*
X18818Y-17708D03*
G54D13*
X18818Y-16708D03*
X18818Y-15708D03*
X18818Y-14708D03*
X18818Y-13708D03*
G54D18*
X18334Y-6417D03*
G54D13*
X19334Y-6417D03*
X20334Y-6417D03*
X21334Y-6417D03*
X22334Y-6417D03*
G54D18*
X9763Y-18838D03*
G54D13*
X10748Y-18838D03*
X11732Y-18838D03*
X12716Y-18838D03*
X13700Y-18838D03*
X14685Y-18838D03*
X14685Y-12933D03*
X13700Y-12933D03*
X12716Y-12933D03*
X11732Y-12933D03*
X10748Y-12933D03*
X9763Y-12933D03*
G54D19*
X8661Y-6092D03*
X8661Y-10521D03*
G54D20*
X5905Y-6092D03*
G54D21*
X5905Y-10521D03*
X5905Y-7568D03*
X5915Y-9045D03*
X42598Y-6732D03*
X42598Y-9881D03*
M02*
